HIERARCHY
ROOT Hips
{
 OFFSET 0.000000 0.000000 0.000000
 CHANNELS 6 Xposition Yposition Zposition Yrotation Xrotation Zrotation
 JOINT Chest
 {
  OFFSET 0.000000 9.588913 -0.003946
  CHANNELS 3 Yrotation Xrotation Zrotation
  JOINT Chest2
  {
   OFFSET 0.000000 9.541882 0.008053
   CHANNELS 3 Yrotation Xrotation Zrotation
   JOINT Chest3
   {
    OFFSET 0.000000 9.501360 0.000000
    CHANNELS 3 Yrotation Xrotation Zrotation
    JOINT Chest4
    {
     OFFSET 0.000000 9.491660 0.000000
     CHANNELS 3 Yrotation Xrotation Zrotation
     JOINT Neck
     {
      OFFSET 0.000000 14.331917 0.000000
      CHANNELS 3 Yrotation Xrotation Zrotation
      JOINT Head
      {
       OFFSET 0.000000 8.884799 0.017034
       CHANNELS 3 Yrotation Xrotation Zrotation
       End Site
       {
        OFFSET 0.000000 16.896195 0.008993
       }
      }
     }
     JOINT RightCollar
     {
      OFFSET -2.923010 9.499495 0.000000
      CHANNELS 3 Yrotation Xrotation Zrotation
      JOINT RightShoulder
      {
       OFFSET -13.795216 0.000000 0.000000
       CHANNELS 3 Yrotation Xrotation Zrotation
       JOINT RightElbow
       {
        OFFSET -30.272209 0.000000 0.000000
        CHANNELS 3 Yrotation Xrotation Zrotation
        JOINT RightWrist
        {
         OFFSET -24.478199 0.000000 0.000000
         CHANNELS 3 Yrotation Xrotation Zrotation
         End Site
         {
          OFFSET -18.090752 0.000000 0.000000
         }
        }
       }
      }
     }
     JOINT LeftCollar
     {
      OFFSET 2.923010 9.499495 0.000000
      CHANNELS 3 Yrotation Xrotation Zrotation
      JOINT LeftShoulder
      {
       OFFSET 13.795216 0.000000 0.000000
       CHANNELS 3 Yrotation Xrotation Zrotation
       JOINT LeftElbow
       {
        OFFSET 30.272209 0.000000 0.000000
        CHANNELS 3 Yrotation Xrotation Zrotation
        JOINT LeftWrist
        {
         OFFSET 24.478199 0.000000 0.000000
         CHANNELS 3 Yrotation Xrotation Zrotation
         End Site
         {
          OFFSET 18.090752 0.000000 0.000000
         }
        }
       }
      }
     }
    }
   }
  }
 }
 JOINT RightHip
 {
  OFFSET -7.826875 0.019532 0.001973
  CHANNELS 3 Yrotation Xrotation Zrotation
  JOINT RightKnee
  {
   OFFSET 0.000000 -40.546152 -0.001885
   CHANNELS 3 Yrotation Xrotation Zrotation
   JOINT RightAnkle
   {
    OFFSET 0.000000 -39.417092 -0.003189
    CHANNELS 3 Yrotation Xrotation Zrotation
    JOINT RightToe
    {
     OFFSET 0.000000 -7.579396 17.243563
     CHANNELS 3 Yrotation Xrotation Zrotation
     End Site
     {
      OFFSET 0.000000 -1.500329 6.694466
     }
    }
   }
  }
 }
 JOINT LeftHip
 {
  OFFSET 7.826875 0.019532 0.001973
  CHANNELS 3 Yrotation Xrotation Zrotation
  JOINT LeftKnee
  {
   OFFSET 0.000000 -40.546152 -0.001885
   CHANNELS 3 Yrotation Xrotation Zrotation
   JOINT LeftAnkle
   {
    OFFSET 0.000000 -39.417092 -0.003189
    CHANNELS 3 Yrotation Xrotation Zrotation
    JOINT LeftToe
    {
     OFFSET 0.000000 -7.579396 17.243563
     CHANNELS 3 Yrotation Xrotation Zrotation
     End Site
     {
      OFFSET 0.000000 -1.500329 6.694466
     }
    }
   }
  }
 }
}
MOTION
Frames: 14
Frame Time: 0.008333
-104.108758 88.883235 109.492029 -59.683585 -9.252726 -0.931150 2.779739 2.849616 -0.754336 1.571780 1.619311 -0.443697 1.962958 2.025990 -0.547718 1.571780 1.619311 -0.443697 -12.608199 24.866662 1.040636 -14.549037 2.292081 4.078622 -3.613957 -2.510825 -5.916252 -16.516845 -26.525511 63.985886 68.633491 1.753555 -9.364887 -22.811745 -17.817166 -12.319188 -8.773583 4.002983 -1.109006 5.526881 -5.127033 -89.114904 -0.742878 -1.376326 0.563417 0.804446 1.776944 -1.735825 -6.038994 7.342589 -6.173806 21.804822 2.021195 -1.396220 24.162481 -5.279471 4.918407 -0.003852 0.035387 -0.039140 17.464578 9.648147 9.052083 12.838720 3.619590 1.199313 14.012368 -3.536276 -4.710291 0.004005 0.107804 -0.027290
-104.197357 88.880629 109.494091 -59.741625 -9.185774 -0.959424 2.786667 2.835613 -0.755761 1.575176 1.613323 -0.443653 1.967209 2.018508 -0.547674 1.575176 1.613323 -0.443653 -12.600385 24.884479 1.111172 -14.558635 2.318460 4.156837 -3.551100 -2.410164 -5.898111 -15.898382 -26.604034 63.627219 66.705346 1.342316 -9.407420 -21.846745 -17.999153 -12.668055 -8.734110 4.022875 -1.094973 5.458582 -5.133244 -89.218610 -0.583581 -1.271671 0.663419 0.868970 1.871143 -1.763523 -5.996122 7.333199 -6.084923 21.793800 2.026140 -1.428105 24.167516 -5.287419 4.879390 -0.004243 0.024857 -0.036202 17.586275 9.634661 9.116834 12.818572 3.576717 1.206316 13.993595 -3.527707 -4.760410 0.000681 0.102428 -0.031381
-104.284696 88.878229 109.495851 -59.805153 -9.132576 -0.989783 2.791808 2.824235 -0.755196 1.577082 1.608734 -0.442625 1.969601 2.012770 -0.546401 1.577082 1.608734 -0.442625 -12.586561 24.906406 1.173256 -14.558788 2.348482 4.223981 -3.480892 -2.288030 -5.872550 -15.332947 -26.792319 63.375688 64.588353 0.875356 -9.306675 -20.684930 -18.137880 -13.115389 -8.693510 4.045353 -1.084401 5.407861 -5.130212 -89.325193 -0.438144 -1.184714 0.760353 0.885811 1.938051 -1.751629 -5.941585 7.334480 -5.988860 21.789749 2.041645 -1.461291 24.146201 -5.297935 4.837327 -0.005764 0.014944 -0.033204 17.711754 9.634697 9.184325 12.805630 3.529981 1.216550 13.977887 -3.518903 -4.811084 -0.001668 0.099112 -0.034062
-104.370319 88.875925 109.497830 -59.873671 -9.092658 -1.020668 2.793996 2.816501 -0.752207 1.577341 1.605593 -0.440759 1.969935 2.008837 -0.544079 1.577340 1.605593 -0.440759 -12.567726 24.931890 1.227692 -14.550908 2.381654 4.281199 -3.408421 -2.142420 -5.844526 -14.913546 -27.158779 63.285905 62.283833 0.337687 -8.973488 -19.354175 -18.229045 -13.649275 -8.653768 4.068141 -1.081596 5.369048 -5.118426 -89.428994 -0.309495 -1.125765 0.857328 0.862558 1.997452 -1.711800 -5.875678 7.339709 -5.897468 21.789372 2.062743 -1.491543 24.150253 -5.310395 4.795672 -0.004952 0.003401 -0.028692 17.839059 9.649175 9.254848 12.806205 3.479026 1.224147 13.961231 -3.511200 -4.858837 -0.002865 0.097797 -0.035285
-104.453370 88.873540 109.500184 -59.949186 -9.061828 -1.051260 2.792671 2.811834 -0.747147 1.576343 1.603659 -0.437946 1.968702 2.006405 -0.540576 1.576343 1.603659 -0.437946 -12.543843 24.958080 1.275569 -14.535164 2.414458 4.329745 -3.340037 -1.985146 -5.819027 -14.750898 -27.742737 63.356291 59.830594 -0.302090 -8.275726 -17.933679 -18.299512 -14.246862 -8.614689 4.086470 -1.089737 5.341207 -5.098574 -89.524153 -0.195669 -1.101858 0.951312 0.804768 2.057775 -1.646064 -5.795011 7.344343 -5.815619 21.787654 2.083236 -1.515108 24.194616 -5.321927 4.755832 -0.000508 -0.009783 -0.022474 17.968634 9.675700 9.332287 12.820781 3.425705 1.224470 13.924393 -3.506794 -4.905020 -0.004644 0.096928 -0.035048
-104.533254 88.870924 109.502738 -60.033124 -9.035441 -1.083559 2.789362 2.808666 -0.739068 1.574246 1.602880 -0.432874 1.966104 2.005407 -0.534247 1.574246 1.602880 -0.432874 -12.516868 24.981721 1.315511 -14.513491 2.442997 4.368546 -3.276647 -1.834227 -5.801485 -14.904397 -28.491222 63.572901 57.312211 -1.039924 -7.141375 -16.511308 -18.354593 -14.903426 -8.576468 4.095054 -1.109985 5.330575 -5.072266 -89.608010 -0.093244 -1.107724 1.035664 0.723983 2.101276 -1.557047 -5.706703 7.354555 -5.730961 21.784111 2.102120 -1.532836 24.211664 -5.328885 4.714443 0.001195 -0.020573 -0.018585 18.101856 9.708976 9.416696 12.847525 3.370000 1.219238 13.867599 -3.506118 -4.952251 -0.006956 0.097120 -0.032443
-104.609871 88.868026 109.505673 -60.128047 -9.011610 -1.118923 2.785371 2.807389 -0.727123 1.571175 1.603027 -0.424902 1.962300 2.005554 -0.524295 1.571175 1.603027 -0.424902 -12.487562 25.001394 1.346172 -14.486426 2.465486 4.396260 -3.200772 -1.691998 -5.792801 -15.212275 -29.221105 63.844226 54.819694 -1.872840 -5.757100 -15.165541 -18.370489 -15.602024 -8.537689 4.090321 -1.140590 5.337806 -5.044085 -89.680967 0.004833 -1.151378 1.105971 0.641293 2.096205 -1.458402 -5.620312 7.368970 -5.639347 21.784410 2.121643 -1.547324 24.190975 -5.331467 4.671632 -0.001672 -0.028455 -0.017822 18.239776 9.743920 9.500064 12.882601 3.311766 1.215286 13.823002 -3.507675 -4.999189 -0.007497 0.100435 -0.027960
-104.682913 88.864796 109.509414 -60.231766 -8.987178 -1.156947 2.780125 2.808760 -0.712618 1.567760 1.603676 -0.415130 1.958073 2.006320 -0.512092 1.567760 1.603676 -0.415131 -12.455158 25.016462 1.370686 -14.453853 2.481239 4.416276 -3.094820 -1.545052 -5.784292 -15.339231 -29.743984 64.001686 52.396512 -2.825330 -4.487679 -13.962174 -18.328599 -16.282371 -8.500328 4.067330 -1.174665 5.355487 -5.013853 -89.742814 0.106099 -1.250268 1.154633 0.569117 2.020803 -1.359497 -5.542355 7.373529 -5.551075 21.794927 2.144015 -1.557278 24.193442 -5.332943 4.629680 -0.003210 -0.036605 -0.016469 18.383265 9.776095 9.580694 12.918669 3.253659 1.216225 13.786077 -3.512747 -5.046876 -0.007327 0.106225 -0.023478
-104.752231 88.861221 109.514219 -60.340912 -8.958701 -1.197604 2.777322 2.811551 -0.698012 1.565828 1.605052 -0.405354 1.955699 2.007996 -0.499873 1.565828 1.605052 -0.405354 -12.422053 25.026930 1.396261 -14.420607 2.491197 4.437374 -2.967534 -1.380512 -5.761005 -15.080488 -30.019857 63.967051 50.030266 -3.836430 -3.571161 -12.903764 -18.218281 -16.868841 -8.472711 4.021956 -1.201097 5.371685 -4.978922 -89.791694 0.212821 -1.414648 1.175069 0.504125 1.884253 -1.263143 -5.475562 7.368791 -5.465710 21.819078 2.166370 -1.560540 24.200316 -5.331576 4.587093 -0.004889 -0.043928 -0.015381 18.535412 9.801025 9.663065 12.950907 3.199680 1.219149 13.736836 -3.524178 -5.095770 -0.007841 0.112937 -0.019933
-104.818403 88.857437 109.520469 -60.453783 -8.926939 -1.240561 2.781131 2.815955 -0.685154 1.566713 1.607237 -0.396726 1.956842 2.010692 -0.489074 1.566713 1.607237 -0.396726 -12.391131 25.034946 1.428427 -14.391724 2.498942 4.466525 -2.838821 -1.198761 -5.716237 -14.513398 -30.142805 63.801157 47.692937 -4.726257 -2.993986 -11.920130 -18.054184 -17.320886 -8.459787 3.957062 -1.213110 5.372598 -4.942845 -89.828894 0.328266 -1.633249 1.177612 0.434381 1.706554 -1.179450 -5.418499 7.361786 -5.380306 21.854595 2.185369 -1.558914 24.189982 -5.326163 4.543278 -0.009022 -0.049259 -0.015425 18.693347 9.818584 9.745384 12.974811 3.150237 1.218920 13.698836 -3.540543 -5.139018 -0.006591 0.120604 -0.018066
-104.882424 88.853689 109.528811 -60.566657 -8.896109 -1.283978 2.788715 2.823478 -0.673001 1.570069 1.609787 -0.388649 1.961071 2.013848 -0.478951 1.570069 1.609787 -0.388649 -12.364418 25.042980 1.466863 -14.369644 2.507875 4.503824 -2.714281 -1.014927 -5.661231 -13.859406 -30.238993 63.590023 45.368823 -5.355524 -2.598902 -10.932554 -17.878880 -17.673408 -8.459731 3.882835 -1.215011 5.347097 -4.914517 -89.855296 0.459002 -1.878168 1.175475 0.346470 1.500627 -1.112661 -5.369359 7.345660 -5.306342 21.893477 2.203490 -1.555834 24.243643 -5.322416 4.503280 -0.007818 -0.056861 -0.012631 18.846145 9.837158 9.826815 12.988303 3.102380 1.213198 13.678017 -3.558674 -5.175163 -0.004026 0.127525 -0.018227
-104.945274 88.850221 109.539549 -60.682793 -8.870559 -1.325283 2.796862 2.832940 -0.658923 1.574985 1.612806 -0.379658 1.967253 2.017588 -0.467678 1.574985 1.612806 -0.379658 -12.341436 25.052423 1.508234 -14.352930 2.519416 4.545347 -2.587301 -0.841625 -5.614619 -13.307141 -30.411002 63.393014 43.064741 -5.698582 -2.214858 -9.881879 -17.749291 -18.020570 -8.463636 3.809053 -1.214850 5.288915 -4.903341 -89.866746 0.606667 -2.127308 1.168201 0.239234 1.283647 -1.052431 -5.323995 7.324364 -5.246197 21.925401 2.220636 -1.552930 24.373748 -5.321682 4.468103 -0.000058 -0.066778 -0.007040 18.992385 9.865811 9.909758 13.005780 3.054124 1.204502 13.643566 -3.576504 -5.210125 -0.003021 0.130536 -0.019818
-105.007867 88.847255 109.552474 -60.808350 -8.854104 -1.363180 2.806593 2.842797 -0.640565 1.580211 1.616586 -0.368403 1.973833 2.022270 -0.453568 1.580211 1.616586 -0.368403 -12.319847 25.065551 1.548783 -14.337795 2.535764 4.586234 -2.453785 -0.681299 -5.588350 -12.932724 -30.700124 63.242193 40.809223 -5.807507 -1.767951 -8.730101 -17.707746 -18.427199 -8.461476 3.739966 -1.221436 5.199431 -4.912516 -89.858055 0.766710 -2.359216 1.157554 0.120759 1.074878 -0.995436 -5.283687 7.316675 -5.187112 21.951434 2.235412 -1.550956 24.485152 -5.320483 4.430808 0.005608 -0.073844 -0.002328 19.138945 9.905449 9.991846 13.042836 3.007979 1.195135 13.600104 -3.592657 -5.244402 -0.001303 0.129728 -0.021135
-105.070476 88.844916 109.567129 -60.943116 -8.847452 -1.396782 2.818374 2.852206 -0.617223 1.585473 1.620918 -0.354734 1.980469 2.027630 -0.436439 1.585474 1.620917 -0.354734 -12.299756 25.085401 1.587142 -14.324076 2.560653 4.624928 -2.312765 -0.536423 -5.580266 -12.665755 -31.054148 63.117906 38.651768 -5.817262 -1.332558 -7.483566 -17.737720 -18.875802 -8.453509 3.672728 -1.240252 5.091270 -4.934089 -89.830487 0.929682 -2.545569 1.156431 0.003803 0.895701 -0.947805 -5.256550 7.324898 -5.126114 21.985589 2.251488 -1.551100 24.546207 -5.319874 4.388040 0.007151 -0.077337 0.001789 19.286438 9.953754 10.071606 13.090733 2.968520 1.185101 13.565061 -3.607917 -5.279096 0.002024 0.125521 -0.020864
